<svg xmlns="http://www.w3.org/2000/svg" width="512" height="512">
  <path d="M188.808 395.958s-19.566 11.378 13.924 15.228c40.572 4.629 61.308 3.965 106.02-4.497 0 0 11.754 7.37 28.17 13.754-100.23 42.957-226.84-2.488-148.114-24.485M176.56 339.902s-21.944 16.244 11.57 19.71c43.34 4.472 77.568 4.838 136.794-6.567 0 0 8.191 8.305 21.072 12.847-121.184 35.435-256.16 2.794-169.435-25.99" fill="#5382a1"/>
  <path d="M279.811 244.813c24.697 28.433-6.489 54.02-6.489 54.02s62.71-32.372 33.91-72.91c-26.898-37.804-47.525-56.587 64.141-121.349 0 0-175.279 43.776-91.562 140.239" fill="#f8981d"/>
  <path d="M412.373 437.42s14.48 11.93-15.946 21.16c-57.854 17.526-240.794 22.818-291.614.698-18.269-7.948 15.99-18.977 26.766-21.29 11.239-2.438 17.662-1.984 17.662-1.984-20.317-14.312-131.318 28.103-56.383 40.25 204.356 33.14 372.523-14.924 319.515-38.834M198.217 281.822s-93.055 22.102-32.953 30.128c25.377 3.398 75.965 2.629 123.087-1.32 38.51-3.248 77.18-10.155 77.18-10.155s-13.58 5.816-23.404 12.524c-94.496 24.852-277.045 13.29-224.491-12.13 44.444-21.484 80.58-19.047 80.58-19.047M365.147 375.13c96.059-49.917 51.645-97.886 20.644-91.423-7.598 1.581-10.986 2.952-10.986 2.952s2.821-4.42 8.208-6.332c61.33-21.561 108.495 63.592-19.797 97.318 0 .001 1.486-1.327 1.93-2.516" fill="#5382a1"/>
  <path d="M307.232 0s53.2 53.217-50.457 135.05c-83.122 65.644-18.955 103.073-.035 145.836-48.52-43.776-84.126-82.313-60.238-118.18C231.563 110.059 328.696 84.533 307.232 0" fill="#f8981d"/>
  <path d="M207.656 510.39c92.205 5.903 233.797-3.274 237.15-46.903 0 0-6.446 16.54-76.203 29.674-78.698 14.81-175.763 13.081-233.332 3.59.001-.002 11.785 9.753 72.385 13.64" fill="#5382a1"/>
</svg>
